<svg xmlns="http://www.w3.org/2000/svg" width="26" height="17" viewBox="0 0 26 17"><g><path fill="#fff" d="M17.086 2.062h6.218V3.65h-6.218zm8.577 9.406h-8.096c.087 1.964 1.041 2.688 2.755 2.688 1.239 0 2.238-.396 2.433-1.095h2.468c-.867 2.662-2.468 3.428-5.008 3.428-3.538 0-5.73-2.443-5.73-5.932 0-3.382 2.323-5.956 5.73-5.956 3.819 0 5.664 3.4 5.448 6.867zm-8.096-2.306h5.014c-.282-1.57-.956-2.226-2.454-2.226-1.953 0-2.517 1.355-2.56 2.226zm-3.891 2.505c0 3.164-2.671 4.518-5.47 4.518H.695V.51H7.99c2.951 0 4.948 1.058 4.948 3.959 0 1.529-.76 2.596-2.107 3.252 1.89.545 2.845 2.006 2.845 3.946zm-6.674-8.52h-3.19v3.642h3.45c1.193 0 2.084-.545 2.084-1.852 0-1.484-1.13-1.79-2.344-1.79zm.52 5.976h-3.71v4.276h3.645c1.346 0 2.517-.435 2.517-2.05 0-1.592-.997-2.226-2.452-2.226z"/></g></svg>