<svg xmlns="http://www.w3.org/2000/svg" width="24" height="20" viewBox="0 0 24 20"><g><path fill="#8f8e91" d="M19.7 5.457v3.416h-1.4V5.457h-3.5V4.061h3.5V.645h1.4V4.06h3.5v1.396zm-9.68-3.459c1.242.688 1.97 1.804 1.97 3.264 0 1.226-.758 2.192-1.735 2.942-.953.732-1.134 1.039-1.134 1.66 0 .53 1.022 1.434 1.555 1.805 1.561 1.084 2.022 2.09 2.022 3.77 0 2.096-2.022 4.438-5.762 4.438-3.28 0-6.136-1.57-6.136-3.666 0-2.128 2.613-4.182 5.893-4.182.358 0 .685-.014 1.024-.014-.449-.429-.804-.962-.804-1.61 0-.385.125-.772.3-1.1-.179.012-.36-.017-.548-.017-2.695 0-4.5-1.948-4.5-4.28 0-2.283 2.493-4.385 5.142-4.385h5.908l-1.322 1.375zM7.318 12.573c-2.268-.024-4.3 1.358-4.3 3.017 0 1.694 1.639 2.932 3.906 2.932 3.188 0 4.3-1.152 4.3-2.845 0-.204-.027-.404-.073-.599-.25-.958-1.132-1.433-2.363-2.273a5.02 5.02 0 0 0-1.47-.232zm2.548-7.285C9.602 3.325 8.09 1.75 6.568 1.705 5.046 1.661 4.026 3.163 4.29 5.126 4.552 7.09 5.998 8.718 7.52 8.762c1.521.045 2.608-1.51 2.346-3.474z"/></g></svg>