<svg xmlns="http://www.w3.org/2000/svg" width="36" height="21" viewBox="0 0 36 21"><g><path fill="#454546" d="M35.549 10.567l-.003.044-.003.023c0 .01-.002.022-.004.032-.001.012-.002.025-.005.037v.005a1.36 1.36 0 0 1-.368.74c-.37.449-.773.869-1.179 1.281-2.193 2.227-4.71 4.213-7.465 5.654-1.761.921-3.642 1.663-5.594 2.02a16.249 16.249 0 0 1-6.428-.09c-3.694-.804-7.04-2.799-9.965-5.184-1.359-1.107-2.694-2.319-3.817-3.68-.492-.596-.492-1.302 0-1.898.369-.447.772-.868 1.178-1.28 2.193-2.227 4.71-4.214 7.466-5.654 1.76-.92 3.642-1.664 5.593-2.02a16.247 16.247 0 0 1 6.429.09c3.693.804 7.039 2.799 9.964 5.184 1.358 1.107 2.694 2.319 3.817 3.68a1.362 1.362 0 0 1 .369.746l.005.037.004.032.002.023c0 .015.002.029.003.044l.002.067-.001.067zm-17.6-6.942a6.6 6.6 0 1 0 .001 13.2 6.6 6.6 0 0 0 0-13.2zm0 9.9a3.3 3.3 0 1 1 0-6.6 3.3 3.3 0 0 1 0 6.6z"/></g></svg>