<svg xmlns="http://www.w3.org/2000/svg" width="32" height="32" viewBox="0 0 32 32"><g><path fill="#454546" d="M30.5 17.5h-4a1.5 1.5 0 1 1 0-3h4a1.5 1.5 0 0 1 0 3zm-5.162-8.717l-.777.777-.005-.004A1.48 1.48 0 0 1 23.5 10 1.5 1.5 0 0 1 22 8.5c0-.415.17-.787.444-1.056l-.005-.005.778-.778L25.94 3.94a1.5 1.5 0 1 1 2.121 2.122zM16 22a5.994 5.994 0 0 1-5.218-3.045l-.591-1.479A5.995 5.995 0 0 1 10 16a6 6 0 1 1 6 6zm0-9a3 3 0 1 0 0 6 3 3 0 0 0 0-6zm0-6a1.5 1.5 0 0 1-1.5-1.5v-4a1.5 1.5 0 0 1 3 0v4A1.5 1.5 0 0 1 16 7zM8.783 25.338L6.06 28.06A1.5 1.5 0 0 1 3.94 25.94l2.722-2.722.777-.778A1.5 1.5 0 1 1 9.56 24.56zM8.5 10a1.48 1.48 0 0 1-1.056-.444l-.005.004-.777-.777L3.939 6.06A1.5 1.5 0 1 1 6.06 3.939l2.723 2.722.778.778-.005.004c.273.27.444.642.444 1.057A1.5 1.5 0 0 1 8.5 10zM7 16a1.5 1.5 0 0 1-1.5 1.5h-4a1.5 1.5 0 1 1 0-3h4A1.5 1.5 0 0 1 7 16zm9 9a1.5 1.5 0 0 1 1.5 1.5v4a1.5 1.5 0 1 1-3 0v-4A1.5 1.5 0 0 1 16 25zm7.5-3c.414 0 .79.167 1.06.439l.778.778 2.723 2.722a1.5 1.5 0 0 1-2.121 2.121l-2.723-2.722-.778-.778A1.5 1.5 0 0 1 23.5 22z"/></g></svg>