<svg xmlns="http://www.w3.org/2000/svg" width="32" height="29" viewBox="0 0 32 29"><g><path fill="#454546" d="M29.963 8.937A19.93 19.93 0 0 0 16 3.25 19.93 19.93 0 0 0 2.037 8.937L.19 6.555A22.915 22.915 0 0 1 16 .25c6.127 0 11.689 2.4 15.811 6.305zM16 7.75a15.45 15.45 0 0 1 11.182 4.772l-1.87 2.41C23.023 12.37 19.705 10.75 16 10.75c-3.705 0-7.023 1.621-9.312 4.181l-1.87-2.409A15.45 15.45 0 0 1 16 7.75zm0 7.5a7.982 7.982 0 0 1 6.484 3.326l-1.651 2.129a5.985 5.985 0 0 0-9.666 0l-1.65-2.129A7.982 7.982 0 0 1 16 15.25zm0 7.5a3 3 0 1 1 0 6 3 3 0 0 1 0-6z"/></g></svg>