<svg xmlns="http://www.w3.org/2000/svg" width="40" height="30" viewBox="0 0 40 30"><g><path fill="#454546" d="M38.678 16.29l.001.001-7.2 7.2-.001-.002a1.8 1.8 0 0 1-3.053-1.29c0-.487.196-.928.51-1.251l-.001-.002 5.936-5.937-5.918-5.918.002-.001a1.8 1.8 0 1 1 2.542-2.542l.002-.003 7.095 7.096a1.788 1.788 0 0 1 .085 2.648zM16.9 28.21a1.8 1.8 0 1 1-3.374-1.256l9.587-25.165a1.8 1.8 0 1 1 3.373 1.257zM11.079 9.09L5.16 15.01l5.937 5.937-.002.002a1.8 1.8 0 0 1-2.542 2.541l-.002.002-7.2-7.2.002-.002a1.787 1.787 0 0 1 .084-2.648l7.095-7.096.002.003a1.8 1.8 0 1 1 2.542 2.542z"/></g></svg>