<svg xmlns="http://www.w3.org/2000/svg" width="20" height="16" viewBox="0 0 20 16"><g><path fill="#fff" d="M13.506.265C15.052.237 15.875.8 16.66 1.517c.667-.057 1.534-.43 2.045-.689l.496-.272c-.292.788-.687 1.405-1.295 1.874-.135.104-.269.244-.438.31v.01c.866-.009 1.58-.4 2.26-.611v.01c-.357.566-.84 1.14-1.354 1.553l-.624.495c.012.917-.013 1.792-.185 2.563-.997 4.48-3.638 7.522-7.82 8.825-1.5.468-3.927.66-5.647.233-.853-.212-1.624-.45-2.347-.767a9.367 9.367 0 0 1-1.13-.583l-.35-.213c.388.012.842.118 1.276.049.392-.064.777-.048 1.139-.127.903-.198 1.705-.46 2.396-.864.334-.196.842-.426 1.08-.709a3.38 3.38 0 0 1-1.188-.213c-1.29-.456-2.042-1.294-2.531-2.554.39.043 1.518.145 1.782-.077-.493-.028-.967-.313-1.305-.524-1.039-.65-1.886-1.74-1.88-3.418l.41.194c.26.11.525.17.837.233.131.027.394.105.545.049h-.02c-.2-.234-.528-.39-.73-.641-.666-.828-1.29-2.103-.896-3.621.1-.386.26-.726.429-1.04l.02.01c.077.163.25.282.36.418.34.422.76.801 1.188 1.136 1.457 1.14 2.77 1.84 4.878 2.36a7.65 7.65 0 0 0 1.792.232c-.18-.523-.122-1.368.02-1.874.355-1.271 1.126-2.188 2.259-2.68.27-.116.57-.202.886-.271l.487-.058z"/></g></svg>