<svg width="236" height="75" viewBox="0 0 236 75" fill="none" xmlns="http://www.w3.org/2000/svg">
<path d="M0 38.1215H28.8453V51.0704H0V38.1215Z" fill="#222222"/>
<path d="M91.321 28.4876C101.378 28.4876 108.784 30.5249 113.541 34.5994C118.366 38.674 120.778 44.1298 120.778 50.9668C120.778 55.3867 119.691 59.4268 117.516 63.087C115.342 66.6782 112.012 69.5787 107.527 71.7887C103.111 73.9296 97.6405 75 91.1172 75C86.0888 75 81.1283 74.3439 76.2358 73.0318C71.4113 71.6505 67.3002 69.7168 63.9027 67.2307L70.426 54.3854C73.144 56.4572 76.2698 58.0801 79.8033 59.2541C83.3367 60.3591 86.9721 60.9116 90.7094 60.9116C94.8545 60.9116 98.1161 60.0829 100.494 58.4254C102.873 56.768 104.062 54.4544 104.062 51.4848C104.062 48.3771 102.805 46.029 100.291 44.4406C97.8443 42.8522 93.5634 42.058 87.4478 42.058H69.2029L72.8722 1.24309H116.395V14.7099H86.6324L85.5112 28.4876H91.321Z" fill="#222222"/>
<path d="M158.055 75C152.144 75 146.877 73.5152 142.257 70.5456C137.636 67.576 134.001 63.2942 131.35 57.7003C128.768 52.0373 127.477 45.3039 127.477 37.5C127.477 29.6961 128.768 22.9972 131.35 17.4033C134.001 11.7403 137.636 7.42403 142.257 4.45442C146.877 1.48481 152.144 0 158.055 0C163.967 0 169.233 1.48481 173.854 4.45442C178.475 7.42403 182.076 11.7403 184.658 17.4033C187.308 22.9972 188.633 29.6961 188.633 37.5C188.633 45.3039 187.308 52.0373 184.658 57.7003C182.076 63.2942 178.475 67.576 173.854 70.5456C169.233 73.5152 163.967 75 158.055 75ZM158.055 60.808C162.404 60.808 165.802 58.9088 168.248 55.1105C170.762 51.3122 172.019 45.442 172.019 37.5C172.019 29.558 170.762 23.6878 168.248 19.8895C165.802 16.0912 162.404 14.192 158.055 14.192C153.774 14.192 150.377 16.0912 147.863 19.8895C145.416 23.6878 144.193 29.558 144.193 37.5C144.193 45.442 145.416 51.3122 147.863 55.1105C150.377 58.9088 153.774 60.808 158.055 60.808Z" fill="#222222"/>
<path d="M202.925 57.0787C200.309 57.0787 198.168 56.1809 196.503 54.3854C194.872 52.5552 194.057 50.1209 194.057 47.0822C194.057 44.0435 194.872 41.6264 196.503 39.8308C198.168 38.0007 200.309 37.0856 202.925 37.0856C205.541 37.0856 207.664 38.0007 209.295 39.8308C210.926 41.6264 211.741 44.0435 211.741 47.0822C211.741 50.1209 210.926 52.5552 209.295 54.3854C207.664 56.1809 205.541 57.0787 202.925 57.0787ZM224.176 37.5H230.241L205.881 73.7569H199.816L224.176 37.5ZM202.925 52.8315C204.08 52.8315 204.98 52.3481 205.626 51.3812C206.305 50.4144 206.645 48.9814 206.645 47.0822C206.645 45.183 206.305 43.75 205.626 42.7831C204.98 41.8163 204.08 41.3329 202.925 41.3329C201.804 41.3329 200.903 41.8336 200.224 42.8349C199.544 43.8018 199.204 45.2175 199.204 47.0822C199.204 48.9468 199.544 50.3798 200.224 51.3812C200.903 52.3481 201.804 52.8315 202.925 52.8315ZM227.132 74.1713C225.434 74.1713 223.905 73.7742 222.546 72.98C221.221 72.1512 220.184 70.9772 219.437 69.4579C218.689 67.9385 218.316 66.1775 218.316 64.1747C218.316 62.172 218.689 60.4109 219.437 58.8916C220.184 57.3722 221.221 56.2155 222.546 55.4213C223.905 54.5925 225.434 54.1782 227.132 54.1782C229.748 54.1782 231.872 55.0932 233.503 56.9233C235.168 58.7189 236 61.1361 236 64.1747C236 67.2134 235.168 69.6478 233.503 71.4779C231.872 73.2735 229.748 74.1713 227.132 74.1713ZM227.132 69.924C228.288 69.924 229.188 69.4406 229.833 68.4738C230.513 67.4724 230.853 66.0394 230.853 64.1747C230.853 62.3101 230.513 60.8943 229.833 59.9275C229.188 58.9261 228.288 58.4254 227.132 58.4254C226.011 58.4254 225.111 58.9088 224.431 59.8757C223.752 60.8425 223.412 62.2756 223.412 64.1747C223.412 66.0739 223.752 67.5069 224.431 68.4738C225.111 69.4406 226.011 69.924 227.132 69.924Z" fill="#222222"/>
</svg>
