<svg width="236" height="23" viewBox="0 0 236 23" fill="none" xmlns="http://www.w3.org/2000/svg">
<path d="M16.4436 11.0552C17.7233 11.4576 18.7257 12.1354 19.4508 13.0884C20.176 14.0203 20.5385 15.1745 20.5385 16.5511C20.5385 18.4995 19.7707 20.0032 18.2352 21.0622C16.7209 22.0999 14.5028 22.6188 11.5809 22.6188H0V0.381214H10.9411C13.671 0.381214 15.7611 0.900091 17.2114 1.93784C18.683 2.9756 19.4188 4.38398 19.4188 6.16298C19.4188 7.24309 19.1522 8.20672 18.6191 9.05387C18.1072 9.90101 17.382 10.5681 16.4436 11.0552ZM5.15063 4.25691V9.49862H10.3013C11.5809 9.49862 12.5513 9.27624 13.2125 8.83149C13.8736 8.38674 14.2042 7.7302 14.2042 6.86188C14.2042 5.99355 13.8736 5.34761 13.2125 4.92403C12.5513 4.47928 11.5809 4.25691 10.3013 4.25691H5.15063ZM11.197 18.7431C12.562 18.7431 13.5857 18.5207 14.2682 18.076C14.972 17.6312 15.3239 16.9429 15.3239 16.011C15.3239 14.1685 13.9483 13.2472 11.197 13.2472H5.15063V18.7431H11.197Z" fill="#222222"/>
<path d="M38.7305 22.6188L34.4116 16.424H34.1557H29.6449V22.6188H24.4622V0.381214H34.1557C36.1391 0.381214 37.856 0.709483 39.3063 1.36602C40.7779 2.02256 41.9083 2.95442 42.6974 4.1616C43.4865 5.36878 43.8811 6.79834 43.8811 8.45028C43.8811 10.1022 43.4759 11.5318 42.6654 12.7389C41.8763 13.925 40.7459 14.8356 39.2743 15.471L44.297 22.6188H38.7305ZM38.6345 8.45028C38.6345 7.20074 38.2293 6.2477 37.4188 5.59116C36.6083 4.91344 35.4247 4.57458 33.8677 4.57458H29.6449V12.326H33.8677C35.4247 12.326 36.6083 11.9871 37.4188 11.3094C38.2293 10.6317 38.6345 9.67864 38.6345 8.45028Z" fill="#222222"/>
<path d="M62.7353 17.8536H52.3381L50.3546 22.6188H45.044L55.0254 0.381214H60.144L70.1573 22.6188H64.7188L62.7353 17.8536ZM61.1038 13.9461L57.5527 5.43232L54.0016 13.9461H61.1038Z" fill="#222222"/>
<path d="M93.0193 0.381214V22.6188H88.7644L77.5994 9.1174V22.6188H72.4807V0.381214H76.7676L87.9006 13.8826V0.381214H93.0193Z" fill="#222222"/>
<path d="M98.3176 0.381214H108.491C110.922 0.381214 113.066 0.847145 114.921 1.77901C116.798 2.68969 118.248 3.98158 119.272 5.6547C120.317 7.32781 120.84 9.27624 120.84 11.5C120.84 13.7238 120.317 15.6722 119.272 17.3453C118.248 19.0184 116.798 20.3209 114.921 21.2528C113.066 22.1634 110.922 22.6188 108.491 22.6188H98.3176V0.381214ZM108.235 18.3936C110.474 18.3936 112.255 17.7795 113.578 16.5511C114.921 15.3016 115.593 13.6179 115.593 11.5C115.593 9.38214 114.921 7.70902 113.578 6.48066C112.255 5.23112 110.474 4.60635 108.235 4.60635H103.5V18.3936H108.235Z" fill="#222222"/>
<path d="M134.529 14.7403V22.6188H129.346V14.6768L120.676 0.381214H126.179L132.161 10.261L138.144 0.381214H143.23L134.529 14.7403Z" fill="#222222"/>
<path d="M161.817 23C160.047 23 158.33 22.767 156.666 22.3011C155.024 21.814 153.702 21.1892 152.699 20.4268L154.459 16.5511C155.419 17.25 156.56 17.8112 157.882 18.2348C159.204 18.6584 160.527 18.8702 161.849 18.8702C163.321 18.8702 164.408 18.6584 165.112 18.2348C165.816 17.7901 166.168 17.2076 166.168 16.4876C166.168 15.9581 165.955 15.5239 165.528 15.1851C165.123 14.825 164.59 14.5391 163.928 14.3273C163.289 14.1156 162.414 13.8826 161.305 13.6285C159.599 13.2261 158.202 12.8237 157.114 12.4213C156.027 12.0189 155.088 11.3729 154.299 10.4834C153.531 9.59392 153.147 8.40792 153.147 6.92541C153.147 5.63352 153.499 4.46869 154.203 3.43094C154.907 2.37201 155.963 1.53545 157.37 0.92127C158.799 0.30709 160.537 0 162.585 0C164.014 0 165.411 0.169429 166.776 0.508286C168.141 0.847145 169.335 1.33425 170.359 1.96961L168.759 5.87707C166.69 4.71225 164.622 4.12983 162.553 4.12983C161.102 4.12983 160.025 4.3628 159.322 4.82873C158.639 5.29466 158.298 5.90884 158.298 6.67127C158.298 7.4337 158.692 8.00552 159.482 8.38674C160.292 8.74678 161.518 9.10681 163.161 9.46685C164.867 9.86924 166.264 10.2716 167.352 10.674C168.439 11.0764 169.367 11.7118 170.135 12.5801C170.924 13.4484 171.318 14.6238 171.318 16.1064C171.318 17.3771 170.956 18.5419 170.231 19.6008C169.527 20.6386 168.461 21.4645 167.032 22.0787C165.603 22.6929 163.864 23 161.817 23Z" fill="#222222"/>
<path d="M189.608 17.8536H179.211L177.227 22.6188H171.917L181.898 0.381214H187.017L197.03 22.6188H191.591L189.608 17.8536ZM187.976 13.9461L184.425 5.43232L180.874 13.9461H187.976Z" fill="#222222"/>
<path d="M199.353 0.381214H204.536V18.4254H215.765V22.6188H199.353V0.381214Z" fill="#222222"/>
<path d="M236 18.4889V22.6188H218.661V0.381214H235.584V4.51105H223.811V9.33978H234.208V13.3425H223.811V18.4889H236Z" fill="#222222"/>
</svg>
