<svg xmlns="http://www.w3.org/2000/svg" width="26" height="25" viewBox="0 0 26 25"><g><g><path fill="#fff" d="M16.742 4.99a4.488 4.488 0 0 0-3.98-2.35c-1.753 0-3.24.965-3.98 2.35zm8.352.73a.5.5 0 0 1 .486.616l-4.303 18.052a.5.5 0 0 1-.486.384H4.733a.5.5 0 0 1-.486-.384L-.056 6.336A.5.5 0 0 1 .43 5.72h5.98c.05-.248.117-.492.198-.73C7.463 2.464 9.895.64 12.762.64s5.3 1.823 6.154 4.35c.08.238.147.482.199.73zM1.355 6.99L5.2 23.119a.5.5 0 0 0 .486.384h14.152a.5.5 0 0 0 .486-.384L24.17 6.991z"/></g></g></svg>