<svg xmlns="http://www.w3.org/2000/svg" width="42" height="70" viewBox="0 0 42 70"><g><g><g transform="rotate(-57.59 21 35)"><g><g><path fill="#444" d="M-12.291 33.394l2.532 4.052c.38.633 1.267.887 2.027.507l31.784-20.008c.633-.38.886-1.266.506-2.026-.38-.633-1.266-.886-2.026-.507L-8.112 34.66l-1.013-1.646L32.536 6.801l4.306 6.839c.38.633 1.266.886 2.026.506L43.3 11.36l8.864 14.056-4.559 2.66c-.38.253-.506.506-.633.886s0 .76.127 1.013l1.52 2.406-31.912 20.134c-.633.38-.886 1.266-.506 2.026.38.633 1.266.887 2.026.507l31.91-20.134 1.267 2.026L9.743 63.025l-4.306-6.838c-.38-.633-1.266-.886-2.026-.506l-4.432 2.786-8.864-14.056 4.432-2.786c.633-.38.886-1.266.506-2.026-.253-.38-.506-.507-.886-.633-.38-.127-.76 0-1.013.126l-5.698 3.546c-.254.506-.507.886-.634 1.266-.126.38 0 .76.127 1.013L-2.667 61.38c.38.633 1.266.887 2.026.507L3.79 59.1l4.305 6.838c.254.38.507.506.887.633s.76 0 1.14-.126l22.033-13.867L54.19 38.712c.633-.38.886-1.266.506-2.026l-4.305-6.838 4.432-2.786c.633-.38.887-1.266.507-2.026L44.946 8.448c-.253-.38-.507-.507-.886-.633-.38-.127-.76 0-1.014.126l-4.432 2.786-4.305-6.838c-.38-.127-.633-.38-1.013-.507-.38-.126-.76 0-1.14.127L-11.91 31.368c-.38.253-.507.506-.633.886 0 .38 0 .76.253 1.14z"/></g><g><path fill="#444" d="M-.768 43.019l13.043-8.231c-.127-3.04 1.266-5.952 3.926-7.598a8.044 8.044 0 0 1 6.331-1.14c.76.254 1.52.507 2.28.887l13.043-8.231c.886-.507 2.026-.76 3.039-.507 1.14.254 2.026.887 2.532 1.773.507.887.76 2.026.507 3.04-.253 1.139-.887 2.025-1.773 2.532l-13.043 8.23c.127 3.04-1.266 5.953-3.926 7.599a8.044 8.044 0 0 1-6.331 1.14c-.76-.254-1.52-.507-2.28-.887L3.539 49.857c-.887.507-2.026.76-3.04.507-1.14-.254-2.026-.887-2.532-1.773-.507-.887-.76-2.026-.507-3.04.254-1.012.887-1.899 1.773-2.532zm1.52 2.406a.696.696 0 0 0-.38.633c-.127.38 0 .633.126.887.254.506 1.014.76 1.52.38l13.803-8.485c.506-.253 1.14-.253 1.646.127l.127.126c.506.254 1.14.634 1.9.76a6.09 6.09 0 0 0 4.178-.76c2.026-1.266 2.912-3.419 2.532-5.698-.126-.633.127-1.266.634-1.52l13.802-8.737c.254-.253.38-.507.507-.76.126-.38 0-.633-.127-.886-.253-.507-1.013-.76-1.52-.38l-13.802 8.737c-.507.254-1.14.254-1.646-.126l-.127-.127c-.506-.253-1.14-.633-1.9-.76a6.09 6.09 0 0 0-4.178.76c-1.9 1.14-2.913 3.293-2.533 5.572.127.506-.126 1.14-.633 1.52z"/></g><g><path fill="#444" d="M27.348 15.665l2.912-1.773c.634-.38.887-1.267.507-2.026-.253-.38-.507-.507-.886-.634-.38-.126-.76 0-1.013.127l-2.913 1.773c-.633.38-.886 1.266-.507 2.026.38.76 1.267.886 1.9.507z"/></g></g></g></g></g></svg>