<svg xmlns="http://www.w3.org/2000/svg" width="31" height="69" viewBox="0 0 31 69"><g><g><g transform="rotate(27 15.5 34.5)"><g><g><path fill="#444" d="M20.89 53.361c.107-.325.107-.65-.106-.976L7.911 29.067c-.319-.543-1.064-.76-1.595-.434-.532.325-.745 1.084-.426 1.627l12.873 23.318c.32.542 1.064.76 1.596.434.32-.108.532-.434.532-.65z"/></g><g><path fill="#444" d="M21.119 56.787l1.477 2.54c.316.508 1.055.711 1.582.406.317-.101.422-.406.528-.61.105-.304.105-.609-.106-.914l-1.477-2.54c-.316-.507-1.055-.71-1.582-.406-.528.305-.739 1.016-.422 1.524z"/></g><g><path fill="#444" d="M9.96-.452l1.288 2.569c1.18-.535 2.468-.642 3.756-.214 1.395.428 2.468 1.284 3.112 2.568.537.963.537 1.926.322 2.675-.536 1.712-2.468 2.675-3.22 3.103l-2.145 1.07 2.79 5.35c.214.215.322.536.322.857 0 .749-.644 1.177-1.288 1.177-1.717-.107-3.327.214-4.722.963l-2.146 1.07c-3.434 1.819-6.117 6.741-4.293 10.273l16.419 28.25a7.158 7.158 0 0 0 9.658 3.103l2.146-1.07a7.172 7.172 0 0 0 3.005-9.631L21.014 22.02c-.43-.856-1.18-1.605-2.147-2.14-.536-.321-.75-1.07-.429-1.605.43-.642 1.073-.75 1.61-.321 1.287.749 2.36 1.819 3.004 3.103l13.95 29.64a9.296 9.296 0 0 1 .645 7.17c-.752 2.247-2.361 4.388-4.722 5.565l-2.146 1.07c-2.254 1.177-4.83 1.39-7.297.642-2.361-.75-4.4-2.461-5.58-4.709L1.59 32.185c-1.395-2.782-.966-5.992.43-8.881l-2.576-4.922-1.931 1.07c-1.18.642-4.722 2.46-6.44-.963-1.18-2.354-.428-5.35 1.825-6.742L-8.39 9.18c-.321-.535-.107-1.284.43-1.605.644-.321 1.395-.107 1.717.535l1.287 2.461 1.932-.963-1.288-2.461c-.322-.642-.107-1.391.43-1.712.643-.214 1.395 0 1.716.535l1.288 2.568 1.825-1.07-1.288-2.461c-.215-.642 0-1.284.536-1.605.644-.321 1.395-.107 1.61.535l1.288 2.46 1.931-.962-1.287-2.568c-.322-.535-.108-1.284.536-1.605.537-.321 1.288-.107 1.61.535l1.288 2.46 1.931-.962L7.814.726C7.492.19 7.707-.56 8.351-.88c.536-.32 1.288 0 1.61.428zm2.254 4.923l-.858.428-4.078 2.14L3.2 9.179l-8.156 4.173-.643.321c-1.395.642-1.932 2.354-1.18 3.746.321.642.643 1.284 3.111 0l3.005-1.606c.322-.214.644-.214.966-.107.322.107.644.321.75.642l2.576 4.923c.966-1.07 2.04-1.926 3.22-2.568l2.146-1.07a10.068 10.068 0 0 1 3.97-1.178l-2.039-3.852-6.546 3.424c-.536.321-1.287.107-1.61-.535-.214-.32-.214-.642-.107-.963.108-.32.322-.642.644-.749L14.146 8.11c2.468-1.284 2.146-1.926 1.824-2.461-.751-1.391-2.468-1.926-3.756-1.177z"/></g></g></g></g></g></svg>