<svg xmlns="http://www.w3.org/2000/svg" width="46" height="68" viewBox="0 0 46 68"><g><g><g transform="rotate(49.37 23 34)"><g><path fill="#444" d="M33.292 48.215c-.653.108-1.197.652-1.088 1.305.109.653.653 1.197 1.305 1.088a6.815 6.815 0 0 0 4.787-2.393c.218-.218.326-.544.326-.87 0-.327-.217-.654-.435-.871-.544-.435-1.305-.435-1.74.109-.87.87-1.958 1.523-3.155 1.632z"/></g><g><path fill="#444" d="M23.392 44.849l4.678 4.025c.544.435 1.305.435 1.74-.109.218-.217.327-.544.327-.87 0-.326-.218-.653-.435-.87l-4.678-4.026c-2.067-1.74-2.285-4.786-.544-6.744.435-.544.435-1.306-.11-1.741-.543-.435-1.305-.435-1.74.109-2.61 3.046-2.284 7.615.762 10.226z"/></g><g><path fill="#444" d="M23.287 4.052c.435.109.87.435.979.98l3.916 20.452c.435-.11.87-.218 1.306-.218 2.61-.217 5.113.653 7.071 2.393l6.636 5.549a10.105 10.105 0 0 1 3.373 6.745c.108 2.284-.544 4.569-1.85 6.418 0 .109-.109.218-.109.218l-5.44 6.31c-.978 1.088-1.849 2.175-2.175 3.046-.109.544-.218 1.088.87 2.067a4.819 4.819 0 0 0 3.59 1.196c1.306 0 2.503-.652 3.373-1.631l5.222-6.093c1.85-2.067 1.523-5.113-.544-6.962-.544-.435-.544-1.197-.109-1.74.435-.545 1.197-.545 1.74-.11 1.633 1.306 2.503 3.155 2.612 5.114.108 1.849-.436 3.807-1.741 5.33l-5.222 6.092c-1.305 1.523-3.155 2.394-5.113 2.503-2.067.108-3.916-.544-5.44-1.85-1.523-1.305-1.958-2.72-1.523-4.351-.543.108-1.087.217-1.631.217-2.611.218-5.113-.653-7.072-2.393l-6.636-5.766a10.106 10.106 0 0 1-3.372-6.745c-.109-1.74.217-3.264.87-4.787l-18.385-5.983c-.653-.218-1.088-.87-.87-1.632.217-.653.87-.98 1.522-.761l18.93 6.2c.109 0 .109-.108.109-.108l4.569-5.222c.87-.98 1.958-1.74 3.046-2.285L22.09 6.337c-1.306-.109-3.916-.218-7.071.109l3.698 9.03c.11.108.11.217.11.325 0 .436-.218.98-.762 1.197-.653.218-1.415 0-1.632-.653l-3.917-9.573C8.6 7.533 4.357 9.165 1.202 12.429c-4.786 5.113-6.31 12.946-4.569 23.498l15.34 1.741c.652.109 1.196.762 1.087 1.414-.108.653-.761 1.197-1.414 1.088l-16.1-1.958c-.545 0-.98-.435-1.088-.979-2.285-11.75-.544-20.67 5.004-26.436 8.594-8.92 23.172-6.854 23.825-6.745zm11.64 25.457c-1.523-1.305-3.372-1.958-5.33-1.85-1.959.218-3.7 1.088-5.005 2.503l-4.569 5.222c-1.305 1.414-1.85 3.263-1.74 5.221.217 1.959 1.087 3.808 2.61 5.114l6.637 5.765c1.523 1.306 3.372 1.959 5.33 1.85 1.958-.218 3.699-1.088 5.004-2.502l4.57-5.222c1.305-1.414 1.849-3.264 1.74-5.222-.217-1.958-1.088-3.808-2.61-5.113z"/></g><g><path fill="#444" d="M21.977 23.846c0-.109 0-.218-.109-.435l-1.632-3.917c-.217-.652-.979-.87-1.632-.652-.652.217-.87.979-.652 1.631l1.631 3.917c.218.653.98.87 1.632.653.544-.218.87-.653.762-1.197z"/></g></g></g></g></svg>