<svg xmlns="http://www.w3.org/2000/svg" width="35" height="70" viewBox="0 0 35 70"><g><g><g transform="rotate(-31.5 17.5 35)"><g><path fill="#444" d="M-8.043 60.804c-3.148-1.816-4.117-5.933-2.18-9.203l.122-.121 30.636-35.722c1.332-2.059 3.754-3.149 6.054-3.027l5.934-6.782c.363-.484 1.09-.605 1.574-.12l5.57 3.39c.606.363.848 1.09.606 1.695l-3.27 8.235c.364.605.121 1.453-.484 1.816-.606.363-1.332.12-1.816-.363l-8.356-5.086c-1.332-.121-2.785.484-3.511 1.816l-.122.121-30.636 35.722c-1.09 1.817-.484 4.239 1.332 5.328l17.922 11.02c1.816 1.09 4.117.605 5.328-1.211L34.58 24.598c.364-.727 1.09-.97 1.817-.727.726.363.969 1.09.726 1.816L19.203 69.402c0 .12-.121.12-.121.242-1.938 3.148-6.055 4.117-9.203 2.18zm37.539-47.347c.12 0 .242.121.242.121l5.086 3.149.12.12 2.423-6.054-3.633-2.18z"/></g><g><path fill="#444" d="M13.272 31.133L-3.923 51.356l-.121.12c-1.454 2.302-.727 5.329 1.695 6.782L9.76 65.645c2.3 1.453 5.328.726 6.781-1.696.363-.605.242-1.453-.484-1.816-.606-.363-1.453-.242-1.817.484-.605 1.09-2.058 1.332-3.027.727L-.896 55.957c-.969-.605-1.332-1.937-.727-2.906L15.572 32.95c.485-.606.485-1.453-.12-1.938l-.122-.12c-.847-.364-1.574-.243-2.058.241z"/></g><g><path fill="#444" d="M17.634 28.225c.606.484 1.453.363 1.938-.121l3.148-3.754c.484-.606.363-1.453-.121-1.938l-.121-.12c-.606-.364-1.332-.243-1.696.241l-3.148 3.754c-.605.485-.605 1.453 0 1.938z"/></g></g></g></g></svg>