<svg xmlns="http://www.w3.org/2000/svg" width="64" height="62" viewBox="0 0 64 62"><g><g><g><g><g><path fill="#444" d="M54.653 12.196C50.809 6.77 43.349 5.301 37.81 9.144a1.41 1.41 0 0 0-.34 1.809 1.41 1.41 0 0 0 1.81.339c4.295-3.052 10.286-1.922 13.338 2.374a9.509 9.509 0 0 1 1.696 5.99c0 .68.452 1.357 1.243 1.357h.452c.565-.113.905-.565.905-1.13.113-2.826-.679-5.539-2.261-7.687z"/></g><g><path fill="#444" d="M53.302 23.272c-.678 1.47-1.809 2.713-3.052 3.617a1.41 1.41 0 0 0-.34 1.809c.34.452.905.678 1.357.452.113 0 .226-.113.34-.226 1.695-1.13 3.051-2.713 3.956-4.522.339-.678.113-1.356-.565-1.695-.566-.226-1.357 0-1.696.565z"/></g><g><path fill="#444" d="M56.805 32.765l5.2 18.651c1.243 4.522-1.357 9.043-5.765 10.287-4.522 1.243-9.043-1.357-10.287-5.765l-5.087-18.539v-.113c-3.39-.678-6.669-2.26-9.269-4.634l-26.564 5.2c-.678.112-1.243-.227-1.47-.905L.06 24.174c-.226-.679.227-1.357.792-1.583l25.546-9.382c1.922-6.104 6.783-10.852 13-12.547 9.947-2.713 20.347 3.165 23.173 13.112 1.922 7.008-.34 14.47-5.765 18.99zm3.278-18.313C57.71 5.862 48.666.775 40.075 3.148c-5.539 1.47-9.834 5.878-11.53 11.304-.113.113-.113.226-.113.226v.113l-.113.114-.113.113-.113.112h-.113l-.113.114h-.226L2.659 24.513 5.6 35.025l25.998-5.086h.792c.113 0 .113.113.226.113l.226.226c4.182 4.07 10.173 5.652 15.825 4.07.678-.227 1.357.225 1.583.903.226.679-.226 1.357-.905 1.583a16.797 16.797 0 0 1-5.764.678l1.13 4.07 2.713-.792c.678-.226 1.356.226 1.582.905.226.678-.226 1.356-.904 1.582l-2.713.791.34 1.13 2.712-.79c.678-.227 1.357.226 1.583.904.226.678-.226 1.356-.905 1.582l-2.713.792 1.922 7.573c.904 3.165 4.07 4.974 7.122 4.07 3.165-.905 4.973-4.07 4.069-7.122l-5.426-19.33c-.113-.565 0-1.017.452-1.356 5.087-4.07 7.235-10.739 5.54-17.069z"/></g><g><path fill="#444" d="M23.235 28.017l-15.26 2.826c-.679.113-1.13.792-1.018 1.47.113.678.792 1.13 1.47 1.017l15.26-2.826h.113c.678-.226 1.017-.791.904-1.47-.113-.678-.79-1.13-1.47-1.017z"/></g><g><path fill="#444" d="M45.955 24.403c-2.713.79-5.539-.905-6.33-3.618-.791-2.713.905-5.539 3.617-6.33 2.713-.791 5.54.905 6.33 3.617.792 2.713-.904 5.54-3.617 6.33zm1.13-5.765c-.451-1.357-1.92-2.148-3.277-1.809-1.357.452-2.148 1.922-1.809 3.278.452 1.357 1.922 2.148 3.278 1.809 1.357-.34 2.26-1.809 1.809-3.278z"/></g></g></g></g></g></svg>