<svg xmlns="http://www.w3.org/2000/svg" width="50" height="70" viewBox="0 0 50 70"><g><g><g transform="rotate(-90 25 35)"><g><g><path fill="#444" d="M13.094 48.118c0-1.205-.241-2.41-.723-3.615l5.542-4.699 27.953 10.724h.12c.362.12 9.278 2.169 13.254-4.097.241-.361.241-.843.12-1.205a1.455 1.455 0 0 0-.843-.843L27.191 34.021l30.724-12.049c.361-.12.602-.482.843-.843.12-.362.12-.843-.12-1.084-1.567-2.651-6.265-6.627-13.254-2.892L17.672 28.358 11.89 23.9c.361-1.205.482-2.41.482-3.614C12.25 14.26 7.19 9.442 1.166 9.562c-6.025.12-10.844 5.181-10.724 11.205.12 6.025 5.181 10.844 11.205 10.724 2.17 0 4.218-.723 5.904-1.928a1.504 1.504 0 0 0 .362-1.928 1.504 1.504 0 0 0-1.928-.361 7.571 7.571 0 0 1-4.458 1.446c-4.578.12-8.314-3.495-8.434-8.073-.12-4.578 3.494-8.314 8.073-8.434 4.578-.12 8.313 3.494 8.434 8.073 0 1.204-.241 2.41-.723 3.494-.12.361-.12.723 0 1.084.12.361.361.602.723.723l6.867 5.301c.362.241.844.362 1.326.12l28.555-11.445h.12c4.459-2.29 7.23-.723 8.676.602L22.612 32.816c-.482.241-.843.723-.843 1.326 0 .602.361 1.084.964 1.204L55.626 46.19c-3.133 2.651-8.314 1.687-9.037 1.567L18.034 36.913c-.482-.12-.964-.12-1.326.24l-6.626 5.664c-.362.12-.603.482-.723.723-.12.361-.12.722.12 1.084.482 1.084.844 2.29.844 3.494.12 4.579-3.495 8.314-8.073 8.434-4.579.12-8.314-3.494-8.434-8.073-.12-4.578 3.494-8.313 8.072-8.434 1.567 0 3.133.362 4.579 1.205.482.241 1.084.241 1.566-.12l6.145-5.06c.603-.483.723-1.326.241-1.928-.482-.603-1.325-.723-1.928-.241L7.07 38.6c-1.566-.844-3.373-1.205-5.18-1.085-6.025.12-10.844 5.181-10.724 11.205.12 6.025 5.181 10.844 11.205 10.724 6.145-.241 10.965-5.181 10.724-11.326z"/></g><g><path fill="#444" d="M5.147 20.52c0 .723.603 1.325 1.446 1.325.723 0 1.326-.602 1.326-1.446-.12-3.614-3.133-6.506-6.748-6.385-1.927 0-3.735.964-4.94 2.53-.24.361-.361.723-.361.964 0 .361.241.723.482 1.084.602.482 1.446.362 1.928-.24.723-.965 1.807-1.447 2.891-1.567 2.17 0 3.976 1.687 3.976 3.735z"/></g></g></g></g></g></svg>